<?xml version="1.0" encoding="UTF-8" standalone="no"?>
<!-- Created with Inkscape (http://www.inkscape.org/) -->

<svg
   width="271.42307mm"
   height="271.42307mm"
   viewBox="0 0 271.42307 271.42307"
   version="1.1"
   id="svg5"
   inkscape:version="1.1.1 (3bf5ae0d25, 2021-09-20)"
   sodipodi:docname="dibujo.svg"
   xmlns:inkscape="http://www.inkscape.org/namespaces/inkscape"
   xmlns:sodipodi="http://sodipodi.sourceforge.net/DTD/sodipodi-0.dtd"
   xmlns="http://www.w3.org/2000/svg"
   xmlns:svg="http://www.w3.org/2000/svg">
  <sodipodi:namedview
     id="namedview7"
     pagecolor="#505050"
     bordercolor="#eeeeee"
     borderopacity="1"
     inkscape:pageshadow="0"
     inkscape:pageopacity="0"
     inkscape:pagecheckerboard="0"
     inkscape:document-units="mm"
     showgrid="false"
     inkscape:snap-bbox="true"
     inkscape:snap-global="false"
     inkscape:zoom="0.38217593"
     inkscape:cx="210.63598"
     inkscape:cy="433.04664"
     inkscape:window-width="1920"
     inkscape:window-height="1017"
     inkscape:window-x="1912"
     inkscape:window-y="-8"
     inkscape:window-maximized="1"
     inkscape:current-layer="g846"
     units="mm"
     fit-margin-top="0"
     fit-margin-left="0"
     fit-margin-right="0"
     fit-margin-bottom="0" />
  <defs
     id="defs2">
    <linearGradient
       id="linearGradient2854"
       inkscape:swatch="solid">
      <stop
         style="stop-color:#000000;stop-opacity:1;"
         offset="0"
         id="stop2852" />
    </linearGradient>
  </defs>
  <g
     inkscape:label="Capa 1"
     inkscape:groupmode="layer"
     id="layer1"
     transform="translate(120.29775,26.67307)">
    <g
       id="g846"
       transform="matrix(0.26458333,0,0,0.26458333,-117.46666,-28.85128)"
       style="fill:#000000;fill-opacity:1">
      <rect
         style="fill:#026ab0;fill-opacity:1;stroke:#026ab0;stroke-width:13.2283;stroke-linecap:round;stroke-linejoin:round;paint-order:fill markers stroke"
         id="rect4359"
         width="1012.6227"
         height="1012.6227"
         x="-4.0860443"
         y="14.846754" />
      <path
         fill="#d9d9d9"
         d="m 704,320 c 0,17.7 -14.3,32 -32,32 H 352 c -17.7,0 -32,-14.3 -32,-32 V 184 H 184 V 840 H 840 V 341.8 L 704,205.8 Z M 512,730 c -79.5,0 -144,-64.5 -144,-144 0,-79.5 64.5,-144 144,-144 79.5,0 144,64.5 144,144 0,79.5 -64.5,144 -144,144 z"
         id="path831"
         style="fill:#026ab0;fill-opacity:1" />
      <path
         d="m 512,442 c -79.5,0 -144,64.5 -144,144 0,79.5 64.5,144 144,144 79.5,0 144,-64.5 144,-144 0,-79.5 -64.5,-144 -144,-144 z m 0,224 c -44.2,0 -80,-35.8 -80,-80 0,-44.2 35.8,-80 80,-80 44.2,0 80,35.8 80,80 0,44.2 -35.8,80 -80,80 z"
         id="path833"
         style="fill:#ffffff;fill-opacity:1" />
      <path
         d="M 885.3,297.3 722.7,134.7 c -0.7,-0.7 -1.4,-1.3 -2.1,-2 -0.1,-0.1 -0.3,-0.2 -0.4,-0.3 -0.7,-0.7 -1.5,-1.3 -2.2,-1.9 A 64,64 0 0 0 696,118.8 V 116 H 136 c -17.7,0 -32,14.3 -32,32 v 736 c 0,17.7 14.3,32 32,32 h 736 c 17.7,0 32,-14.3 32,-32 V 342.5 c 0,-17 -6.7,-33.2 -18.7,-45.2 z M 376,188 H 632 V 292 H 376 Z M 832,844 H 176 V 188 h 136 v 136 c 0,17.7 14.3,32 32,32 h 320 c 17.7,0 32,-14.3 32,-32 V 209.8 l 136,136 z"
         id="path835"
         style="fill:#ffffff;fill-opacity:1" />
    </g>
  </g>
</svg>
